<?xml version="1.0" encoding="utf-8"?>
<!-- Svg Vector Icons : http://www.onlinewebfonts.com/icon -->
<!DOCTYPE svg PUBLIC "-//W3C//DTD SVG 1.1//EN" "http://www.w3.org/Graphics/SVG/1.1/DTD/svg11.dtd">
<svg version="1.1" xmlns="http://www.w3.org/2000/svg" xmlns:xlink="http://www.w3.org/1999/xlink" x="0px" y="0px" viewBox="0 0 1000 1000" enable-background="new 0 0 1000 1000" xml:space="preserve">
<metadata> Svg Vector Icons : http://www.onlinewebfonts.com/icon </metadata>
<g><path d="M943.6,229.8l-28.8-28.7c-31.7-31.7-83.2-31.7-114.9,0L484.5,516.6L397.8,746l230.4-85.7l315.5-315.5C975.4,313,975.4,261.6,943.6,229.8z M577.5,628.5l-99.1,36.9l37.1-98.5l5.6-5.6l61.8,61.8L577.5,628.5z M612.6,593.4l-61.8-61.6l239-239l61.8,61.8L612.6,593.4z M898.5,307.5l-20.9,20.9l-61.6-61.8l20.9-20.9c11.3-11.3,29.8-11.3,41.1,0l20.6,20.6C910,277.6,910,296,898.5,307.5z"/><path d="M174.8,774.7h179l20.9-56.9H174.8V774.7z"/><path d="M420.7,561.8H174.8v56.9h224.3L420.7,561.8z"/><path d="M174.8,405.8h249.5v56.9H174.8L174.8,405.8L174.8,405.8z"/><path d="M424.3,775.8h197.6v-71.2L424.3,775.8z"/><path d="M737.6,889c0,22.4-18.2,40.7-40.7,40.7H135.9c-22.4,0-40.7-18.2-40.7-40.7v-778c0-22.4,18.2-40.7,40.7-40.7h343.7v182.8c0,44.9,43.5,70,102.6,70l64.3-63.3h-63c-22.4,0-40.7-18.2-40.7-40.7V92.8l142,128.7l44-44L541.4,10H113.8c-44.9,0-81.3,36.4-81.3,81.3v817.5c0,44.9,36.4,81.3,81.3,81.3h614.4c44.9,0,81.3-36.4,81.3-81.3V550.6l-71.8,71.8V889z"/></g>
</svg>